<mxfile host="app.diagrams.net" agent="Mozilla/5.0 (Macintosh; Intel Mac OS X 10_15_7) AppleWebKit/537.36 (KHTML, like Gecko) Chrome/127.0.0.0 Safari/537.36" version="24.7.6">
  <diagram name="Page-1" id="c7558073-3199-34d8-9f00-42111426c3f3">
    <mxGraphModel dx="3882" dy="2835" grid="1" gridSize="10" guides="1" tooltips="1" connect="1" arrows="1" fold="1" page="1" pageScale="1" pageWidth="826" pageHeight="1169" background="none" math="0" shadow="0">
      <root>
        <mxCell id="0" />
        <mxCell id="1" parent="0" />
        <mxCell id="skSYLd1-rQxxLsY-IW7r-117" value="" style="edgeStyle=orthogonalEdgeStyle;rounded=0;orthogonalLoop=1;jettySize=auto;html=1;" parent="1" source="skSYLd1-rQxxLsY-IW7r-97" target="skSYLd1-rQxxLsY-IW7r-101" edge="1">
          <mxGeometry relative="1" as="geometry" />
        </mxCell>
        <mxCell id="skSYLd1-rQxxLsY-IW7r-97" value="&lt;ul&gt;&lt;li&gt;&lt;b&gt;stake &lt;/b&gt;&lt;/li&gt;&lt;li&gt;&lt;b&gt;stake_to_specific_pool&lt;/b&gt;&lt;/li&gt;&lt;/ul&gt;" style="rounded=0;whiteSpace=wrap;html=1;align=left;fillColor=#d5e8d4;strokeColor=#82b366;" parent="1" vertex="1">
          <mxGeometry x="27.77" y="-410" width="234" height="60" as="geometry" />
        </mxCell>
        <mxCell id="skSYLd1-rQxxLsY-IW7r-98" value="" style="sketch=0;outlineConnect=0;fontColor=#232F3E;gradientColor=none;fillColor=#232F3D;strokeColor=none;dashed=0;verticalLabelPosition=bottom;verticalAlign=top;align=center;html=1;fontSize=12;fontStyle=0;aspect=fixed;pointerEvents=1;shape=mxgraph.aws4.user;" parent="1" vertex="1">
          <mxGeometry x="87" y="-590" width="78" height="78" as="geometry" />
        </mxCell>
        <mxCell id="skSYLd1-rQxxLsY-IW7r-99" value="" style="endArrow=classic;html=1;rounded=0;" parent="1" edge="1">
          <mxGeometry width="50" height="50" relative="1" as="geometry">
            <mxPoint x="130" y="-500" as="sourcePoint" />
            <mxPoint x="130" y="-410" as="targetPoint" />
          </mxGeometry>
        </mxCell>
        <mxCell id="skSYLd1-rQxxLsY-IW7r-100" value="&lt;b&gt;&lt;font style=&quot;font-size: 14px;&quot;&gt;Stake Workflow&lt;/font&gt;&lt;/b&gt;" style="edgeLabel;html=1;align=center;verticalAlign=middle;resizable=0;points=[];" parent="skSYLd1-rQxxLsY-IW7r-99" vertex="1" connectable="0">
          <mxGeometry x="-0.0469" y="-3" relative="1" as="geometry">
            <mxPoint as="offset" />
          </mxGeometry>
        </mxCell>
        <mxCell id="skSYLd1-rQxxLsY-IW7r-101" value="&lt;b&gt;internal_deposit_and_stake&lt;/b&gt;" style="rounded=0;whiteSpace=wrap;html=1;" parent="1" vertex="1">
          <mxGeometry x="27.77" y="-310" width="234" height="60" as="geometry" />
        </mxCell>
        <mxCell id="skSYLd1-rQxxLsY-IW7r-130" style="edgeStyle=orthogonalEdgeStyle;rounded=0;orthogonalLoop=1;jettySize=auto;html=1;entryX=0.5;entryY=0;entryDx=0;entryDy=0;" parent="1" source="skSYLd1-rQxxLsY-IW7r-105" target="skSYLd1-rQxxLsY-IW7r-128" edge="1">
          <mxGeometry relative="1" as="geometry">
            <mxPoint x="660" as="targetPoint" />
            <Array as="points">
              <mxPoint x="155" y="90" />
            </Array>
          </mxGeometry>
        </mxCell>
        <mxCell id="skSYLd1-rQxxLsY-IW7r-136" value="&lt;ul style=&quot;font-size: 12px; text-wrap: wrap; background-color: rgb(251, 251, 251);&quot;&gt;&lt;li style=&quot;text-align: left;&quot;&gt;&lt;b&gt;deposit_and_stake&lt;/b&gt;&lt;br&gt;&lt;/li&gt;&lt;li style=&quot;text-align: left;&quot;&gt;&lt;b&gt;get_account_total_balance&lt;/b&gt;&lt;/li&gt;&lt;/ul&gt;" style="edgeLabel;html=1;align=center;verticalAlign=middle;resizable=0;points=[];" parent="skSYLd1-rQxxLsY-IW7r-130" vertex="1" connectable="0">
          <mxGeometry x="-0.7203" y="2" relative="1" as="geometry">
            <mxPoint x="-2" y="48" as="offset" />
          </mxGeometry>
        </mxCell>
        <mxCell id="skSYLd1-rQxxLsY-IW7r-105" value="&lt;span style=&quot;&quot;&gt;&lt;b&gt;send_stake_promises&lt;br&gt;&lt;/b&gt;&lt;div style=&quot;text-align: left;&quot;&gt;&lt;span style=&quot;background-color: initial;&quot;&gt;&lt;br&gt;Send Calls to staking pool&lt;/span&gt;&lt;/div&gt;&lt;/span&gt;" style="rounded=0;whiteSpace=wrap;html=1;" parent="1" vertex="1">
          <mxGeometry x="27.769999999999996" y="-194" width="254.45" height="80" as="geometry" />
        </mxCell>
        <mxCell id="skSYLd1-rQxxLsY-IW7r-115" value="" style="endArrow=classic;html=1;rounded=0;exitX=0.5;exitY=1;exitDx=0;exitDy=0;entryX=0.5;entryY=0;entryDx=0;entryDy=0;" parent="1" source="skSYLd1-rQxxLsY-IW7r-101" edge="1">
          <mxGeometry width="50" height="50" relative="1" as="geometry">
            <mxPoint x="250" y="-90" as="sourcePoint" />
            <mxPoint x="144.7750000000001" y="-216.23000000000002" as="targetPoint" />
          </mxGeometry>
        </mxCell>
        <mxCell id="z-s9yusdOaEq-gaOYd2X-59" style="edgeStyle=orthogonalEdgeStyle;rounded=0;orthogonalLoop=1;jettySize=auto;html=1;exitX=0.5;exitY=1;exitDx=0;exitDy=0;entryX=0.5;entryY=0;entryDx=0;entryDy=0;" parent="1" source="skSYLd1-rQxxLsY-IW7r-128" target="skSYLd1-rQxxLsY-IW7r-131" edge="1">
          <mxGeometry relative="1" as="geometry" />
        </mxCell>
        <mxCell id="z-s9yusdOaEq-gaOYd2X-60" value="Callback" style="edgeLabel;html=1;align=center;verticalAlign=middle;resizable=0;points=[];" parent="z-s9yusdOaEq-gaOYd2X-59" vertex="1" connectable="0">
          <mxGeometry x="-0.0737" relative="1" as="geometry">
            <mxPoint y="1" as="offset" />
          </mxGeometry>
        </mxCell>
        <mxCell id="skSYLd1-rQxxLsY-IW7r-128" value="&lt;div style=&quot;text-align: left;&quot;&gt;&lt;font style=&quot;font-size: 17px;&quot;&gt;Staking Pool&lt;/font&gt;&lt;/div&gt;" style="rounded=0;whiteSpace=wrap;html=1;fillColor=#f8cecc;strokeColor=#b85450;" parent="1" vertex="1">
          <mxGeometry x="52.769999999999996" y="90" width="184" height="100" as="geometry" />
        </mxCell>
        <mxCell id="skSYLd1-rQxxLsY-IW7r-131" value="&lt;b&gt;finalize_deposit_and_stake&lt;br&gt;&lt;br&gt;&lt;/b&gt;&lt;div style=&quot;text-align: left;&quot;&gt;&lt;ol&gt;&lt;li&gt;if callback error return funds to user&lt;/li&gt;&lt;li&gt;update&amp;nbsp;self.total_staked, pool.total_staked&lt;/li&gt;&lt;li&gt;update self.tax_exempt_stake&lt;/li&gt;&lt;li&gt;internal_mint&lt;/li&gt;&lt;li&gt;emit event&lt;/li&gt;&lt;/ol&gt;&lt;/div&gt;" style="rounded=0;whiteSpace=wrap;html=1;fillColor=#fff2cc;strokeColor=#d6b656;" parent="1" vertex="1">
          <mxGeometry x="4.77" y="326.5" width="280" height="180" as="geometry" />
        </mxCell>
        <mxCell id="skSYLd1-rQxxLsY-IW7r-138" value="" style="edgeStyle=orthogonalEdgeStyle;rounded=0;orthogonalLoop=1;jettySize=auto;html=1;" parent="1" source="skSYLd1-rQxxLsY-IW7r-139" target="skSYLd1-rQxxLsY-IW7r-143" edge="1">
          <mxGeometry relative="1" as="geometry" />
        </mxCell>
        <mxCell id="skSYLd1-rQxxLsY-IW7r-139" value="&lt;ul&gt;&lt;li&gt;&lt;b&gt;unstake &lt;/b&gt;&lt;/li&gt;&lt;li&gt;&lt;b&gt;unstake_from_specific_pool&lt;/b&gt;&lt;/li&gt;&lt;/ul&gt;" style="rounded=0;whiteSpace=wrap;html=1;align=left;fillColor=#d5e8d4;strokeColor=#82b366;" parent="1" vertex="1">
          <mxGeometry x="1005.23" y="-410" width="234" height="60" as="geometry" />
        </mxCell>
        <mxCell id="skSYLd1-rQxxLsY-IW7r-140" value="" style="sketch=0;outlineConnect=0;fontColor=#232F3E;gradientColor=none;fillColor=#232F3D;strokeColor=none;dashed=0;verticalLabelPosition=bottom;verticalAlign=top;align=center;html=1;fontSize=12;fontStyle=0;aspect=fixed;pointerEvents=1;shape=mxgraph.aws4.user;" parent="1" vertex="1">
          <mxGeometry x="1064.46" y="-590" width="78" height="78" as="geometry" />
        </mxCell>
        <mxCell id="skSYLd1-rQxxLsY-IW7r-141" value="" style="endArrow=classic;html=1;rounded=0;" parent="1" edge="1">
          <mxGeometry width="50" height="50" relative="1" as="geometry">
            <mxPoint x="1107.46" y="-500" as="sourcePoint" />
            <mxPoint x="1107.46" y="-410" as="targetPoint" />
          </mxGeometry>
        </mxCell>
        <mxCell id="skSYLd1-rQxxLsY-IW7r-142" value="&lt;b&gt;&lt;font style=&quot;font-size: 14px;&quot;&gt;Unstake Workflow&lt;/font&gt;&lt;/b&gt;" style="edgeLabel;html=1;align=center;verticalAlign=middle;resizable=0;points=[];" parent="skSYLd1-rQxxLsY-IW7r-141" vertex="1" connectable="0">
          <mxGeometry x="-0.0469" y="-3" relative="1" as="geometry">
            <mxPoint as="offset" />
          </mxGeometry>
        </mxCell>
        <mxCell id="skSYLd1-rQxxLsY-IW7r-143" value="&lt;b&gt;internal_unstake&lt;/b&gt;" style="rounded=0;whiteSpace=wrap;html=1;" parent="1" vertex="1">
          <mxGeometry x="1005.23" y="-310" width="234" height="60" as="geometry" />
        </mxCell>
        <mxCell id="skSYLd1-rQxxLsY-IW7r-145" style="edgeStyle=orthogonalEdgeStyle;rounded=0;orthogonalLoop=1;jettySize=auto;html=1;entryX=0.5;entryY=0;entryDx=0;entryDy=0;exitX=0.5;exitY=1;exitDx=0;exitDy=0;" parent="1" source="skSYLd1-rQxxLsY-IW7r-163" target="skSYLd1-rQxxLsY-IW7r-159" edge="1">
          <mxGeometry relative="1" as="geometry">
            <mxPoint x="1325.23" y="-318.66" as="targetPoint" />
            <mxPoint x="1375.46" y="-18.660000000000025" as="sourcePoint" />
            <Array as="points">
              <mxPoint x="1122.23" />
              <mxPoint x="1122.23" />
            </Array>
          </mxGeometry>
        </mxCell>
        <mxCell id="skSYLd1-rQxxLsY-IW7r-165" value="&lt;ul style=&quot;background-color: rgb(251, 251, 251);&quot;&gt;&lt;li style=&quot;font-size: 12px; text-wrap: wrap; text-align: left;&quot;&gt;&lt;b&gt;withdraw&lt;/b&gt; (if 4+ epochs since last_unstake)&lt;br&gt;&lt;/li&gt;&lt;li style=&quot;font-size: 12px; text-wrap: wrap; text-align: left;&quot;&gt;&lt;b&gt;unstake&lt;/b&gt;&lt;/li&gt;&lt;li style=&quot;text-align: left;&quot;&gt;&lt;span style=&quot;font-size: 12px; text-wrap: wrap;&quot;&gt;&lt;b&gt;get_account_unstaked_balance&lt;/b&gt;&lt;/span&gt;&lt;/li&gt;&lt;/ul&gt;" style="edgeLabel;html=1;align=center;verticalAlign=middle;resizable=0;points=[];" parent="skSYLd1-rQxxLsY-IW7r-145" vertex="1" connectable="0">
          <mxGeometry x="-0.6404" y="1" relative="1" as="geometry">
            <mxPoint x="12" y="40" as="offset" />
          </mxGeometry>
        </mxCell>
        <mxCell id="skSYLd1-rQxxLsY-IW7r-158" value="" style="endArrow=classic;html=1;rounded=0;exitX=0.5;exitY=1;exitDx=0;exitDy=0;entryX=0.5;entryY=0;entryDx=0;entryDy=0;" parent="1" source="skSYLd1-rQxxLsY-IW7r-143" target="skSYLd1-rQxxLsY-IW7r-163" edge="1">
          <mxGeometry width="50" height="50" relative="1" as="geometry">
            <mxPoint x="1227.46" y="-90" as="sourcePoint" />
            <mxPoint x="1122.23" y="-216" as="targetPoint" />
          </mxGeometry>
        </mxCell>
        <mxCell id="z-s9yusdOaEq-gaOYd2X-54" value="Callback" style="edgeStyle=orthogonalEdgeStyle;rounded=0;orthogonalLoop=1;jettySize=auto;html=1;exitX=0.5;exitY=1;exitDx=0;exitDy=0;" parent="1" source="skSYLd1-rQxxLsY-IW7r-159" target="skSYLd1-rQxxLsY-IW7r-160" edge="1">
          <mxGeometry x="0.0074" relative="1" as="geometry">
            <mxPoint as="offset" />
          </mxGeometry>
        </mxCell>
        <mxCell id="skSYLd1-rQxxLsY-IW7r-159" value="&lt;div style=&quot;text-align: left;&quot;&gt;&lt;font style=&quot;font-size: 17px;&quot;&gt;Staking Pool&lt;/font&gt;&lt;/div&gt;" style="rounded=0;whiteSpace=wrap;html=1;fillColor=#f8cecc;strokeColor=#b85450;" parent="1" vertex="1">
          <mxGeometry x="1022.46" y="90" width="184" height="110" as="geometry" />
        </mxCell>
        <mxCell id="skSYLd1-rQxxLsY-IW7r-160" value="&lt;b&gt;finalize_unstake&lt;/b&gt;&lt;br&gt;&lt;br&gt;&lt;div style=&quot;text-align: left;&quot;&gt;&lt;ol&gt;&lt;li&gt;&lt;span style=&quot;background-color: initial;&quot;&gt;update self.withdrawn_amount if a withdraw occurred&amp;nbsp;&lt;/span&gt;&lt;/li&gt;&lt;li&gt;&lt;span style=&quot;background-color: initial;&quot;&gt;update&amp;nbsp;&lt;/span&gt;pool.total_unstaked&lt;/li&gt;&lt;li&gt;&lt;span style=&quot;background-color: initial;&quot;&gt;update&amp;nbsp;&lt;/span&gt;self.total_staked&lt;br&gt;&lt;/li&gt;&lt;li&gt;update&amp;nbsp;self.tax_exempt_stake&lt;/li&gt;&lt;li&gt;internal_burn&lt;/li&gt;&lt;li&gt;record&amp;nbsp;UnstakeRequest&lt;/li&gt;&lt;li&gt;emit event&lt;/li&gt;&lt;/ol&gt;&lt;/div&gt;" style="rounded=0;whiteSpace=wrap;html=1;fillColor=#fff2cc;strokeColor=#d6b656;" parent="1" vertex="1">
          <mxGeometry x="974.46" y="306.5" width="280" height="200" as="geometry" />
        </mxCell>
        <mxCell id="skSYLd1-rQxxLsY-IW7r-163" value="&lt;span style=&quot;&quot;&gt;&lt;b&gt;send_unstake_promises&lt;/b&gt;&lt;br&gt;&lt;div style=&quot;text-align: left;&quot;&gt;&lt;span style=&quot;background-color: initial;&quot;&gt;&lt;br&gt;&lt;/span&gt;Send&lt;span style=&quot;background-color: initial;&quot;&gt;&amp;nbsp;Calls to staking pool&lt;/span&gt;&lt;/div&gt;&lt;/span&gt;" style="rounded=0;whiteSpace=wrap;html=1;" parent="1" vertex="1">
          <mxGeometry x="995.01" y="-180" width="254.45" height="80" as="geometry" />
        </mxCell>
        <mxCell id="skSYLd1-rQxxLsY-IW7r-191" value="" style="edgeStyle=orthogonalEdgeStyle;rounded=0;orthogonalLoop=1;jettySize=auto;html=1;" parent="1" source="skSYLd1-rQxxLsY-IW7r-192" target="skSYLd1-rQxxLsY-IW7r-196" edge="1">
          <mxGeometry relative="1" as="geometry" />
        </mxCell>
        <mxCell id="skSYLd1-rQxxLsY-IW7r-192" value="&lt;ul&gt;&lt;li&gt;&lt;b&gt;withdraw&lt;/b&gt;&lt;/li&gt;&lt;/ul&gt;" style="rounded=0;whiteSpace=wrap;html=1;align=left;fillColor=#d5e8d4;strokeColor=#82b366;" parent="1" vertex="1">
          <mxGeometry x="1900" y="-410" width="234" height="60" as="geometry" />
        </mxCell>
        <mxCell id="skSYLd1-rQxxLsY-IW7r-193" value="" style="sketch=0;outlineConnect=0;fontColor=#232F3E;gradientColor=none;fillColor=#232F3D;strokeColor=none;dashed=0;verticalLabelPosition=bottom;verticalAlign=top;align=center;html=1;fontSize=12;fontStyle=0;aspect=fixed;pointerEvents=1;shape=mxgraph.aws4.user;" parent="1" vertex="1">
          <mxGeometry x="1967" y="-590" width="78" height="78" as="geometry" />
        </mxCell>
        <mxCell id="skSYLd1-rQxxLsY-IW7r-194" value="" style="endArrow=classic;html=1;rounded=0;" parent="1" edge="1">
          <mxGeometry width="50" height="50" relative="1" as="geometry">
            <mxPoint x="2010" y="-500" as="sourcePoint" />
            <mxPoint x="2010" y="-410" as="targetPoint" />
          </mxGeometry>
        </mxCell>
        <mxCell id="skSYLd1-rQxxLsY-IW7r-195" value="&lt;b&gt;&lt;font style=&quot;font-size: 14px;&quot;&gt;Withdraw Workflow&lt;/font&gt;&lt;/b&gt;" style="edgeLabel;html=1;align=center;verticalAlign=middle;resizable=0;points=[];" parent="skSYLd1-rQxxLsY-IW7r-194" vertex="1" connectable="0">
          <mxGeometry x="-0.0469" y="-3" relative="1" as="geometry">
            <mxPoint as="offset" />
          </mxGeometry>
        </mxCell>
        <mxCell id="skSYLd1-rQxxLsY-IW7r-196" value="&lt;b&gt;internal_withdraw&lt;/b&gt;" style="rounded=0;whiteSpace=wrap;html=1;" parent="1" vertex="1">
          <mxGeometry x="1900" y="-310" width="234" height="60" as="geometry" />
        </mxCell>
        <mxCell id="skSYLd1-rQxxLsY-IW7r-197" value="is there stake&amp;nbsp;&lt;br&gt;to withdraw&lt;br&gt;from the pool&lt;br&gt;?" style="rhombus;whiteSpace=wrap;html=1;" parent="1" vertex="1">
          <mxGeometry x="1917" y="-216.23" width="200" height="106.23" as="geometry" />
        </mxCell>
        <mxCell id="skSYLd1-rQxxLsY-IW7r-202" style="edgeStyle=orthogonalEdgeStyle;rounded=0;orthogonalLoop=1;jettySize=auto;html=1;exitX=1;exitY=0.5;exitDx=0;exitDy=0;" parent="1" source="skSYLd1-rQxxLsY-IW7r-197" edge="1">
          <mxGeometry relative="1" as="geometry">
            <mxPoint x="2272.2299999999996" y="-55" as="sourcePoint" />
            <mxPoint x="2209" y="150" as="targetPoint" />
          </mxGeometry>
        </mxCell>
        <mxCell id="skSYLd1-rQxxLsY-IW7r-203" value="&lt;ul style=&quot;text-align: left; background-color: rgb(251, 251, 251);&quot;&gt;&lt;li style=&quot;&quot;&gt;&lt;span style=&quot;font-size: 12px; text-wrap: wrap;&quot;&gt;&lt;b&gt;withdraw&lt;/b&gt;&lt;/span&gt;&lt;br&gt;&lt;/li&gt;&lt;li style=&quot;&quot;&gt;&lt;span style=&quot;font-size: 12px; text-wrap: wrap;&quot;&gt;&lt;b&gt;get_account_unstaked_balance&lt;/b&gt;&lt;/span&gt;&lt;br&gt;&lt;/li&gt;&lt;/ul&gt;" style="edgeLabel;html=1;align=center;verticalAlign=middle;resizable=0;points=[];" parent="skSYLd1-rQxxLsY-IW7r-202" vertex="1" connectable="0">
          <mxGeometry x="-0.232" y="-1" relative="1" as="geometry">
            <mxPoint x="9" y="30" as="offset" />
          </mxGeometry>
        </mxCell>
        <mxCell id="skSYLd1-rQxxLsY-IW7r-217" value="YES" style="edgeLabel;html=1;align=center;verticalAlign=middle;resizable=0;points=[];" parent="skSYLd1-rQxxLsY-IW7r-202" vertex="1" connectable="0">
          <mxGeometry x="-0.8263" y="-3" relative="1" as="geometry">
            <mxPoint as="offset" />
          </mxGeometry>
        </mxCell>
        <mxCell id="z-s9yusdOaEq-gaOYd2X-2" style="edgeStyle=orthogonalEdgeStyle;rounded=0;orthogonalLoop=1;jettySize=auto;html=1;exitX=0.5;exitY=1;exitDx=0;exitDy=0;entryX=0.5;entryY=0;entryDx=0;entryDy=0;" parent="1" source="skSYLd1-rQxxLsY-IW7r-206" target="skSYLd1-rQxxLsY-IW7r-213" edge="1">
          <mxGeometry relative="1" as="geometry" />
        </mxCell>
        <mxCell id="skSYLd1-rQxxLsY-IW7r-206" value="&lt;div style=&quot;&quot;&gt;&lt;b&gt;withdraw_callback&lt;/b&gt;&lt;br&gt;&lt;/div&gt;&lt;div&gt;&lt;b style=&quot;background-color: initial; text-align: left;&quot;&gt;&lt;br&gt;&lt;/b&gt;&lt;/div&gt;&lt;div&gt;&lt;ol&gt;&lt;li style=&quot;text-align: left;&quot;&gt;check promise result for get_account_unstaked_balance&lt;/li&gt;&lt;li style=&quot;text-align: left;&quot;&gt;update&amp;nbsp;self.withdrawn_amount&lt;/li&gt;&lt;/ol&gt;&lt;/div&gt;" style="rounded=0;whiteSpace=wrap;html=1;fillColor=#fff2cc;strokeColor=#d6b656;" parent="1" vertex="1">
          <mxGeometry x="2018.5" y="250" width="381" height="130" as="geometry" />
        </mxCell>
        <mxCell id="skSYLd1-rQxxLsY-IW7r-207" value="" style="endArrow=classic;html=1;rounded=0;entryX=-0.001;entryY=0.545;entryDx=0;entryDy=0;exitX=0;exitY=0.5;exitDx=0;exitDy=0;entryPerimeter=0;" parent="1" source="skSYLd1-rQxxLsY-IW7r-197" target="skSYLd1-rQxxLsY-IW7r-213" edge="1">
          <mxGeometry width="50" height="50" relative="1" as="geometry">
            <mxPoint x="2109.23" y="-90" as="sourcePoint" />
            <mxPoint x="1954.30145" y="380.6399999999999" as="targetPoint" />
            <Array as="points">
              <mxPoint x="1917" y="637" />
            </Array>
          </mxGeometry>
        </mxCell>
        <mxCell id="skSYLd1-rQxxLsY-IW7r-208" value="NO" style="edgeLabel;html=1;align=center;verticalAlign=middle;resizable=0;points=[];" parent="skSYLd1-rQxxLsY-IW7r-207" vertex="1" connectable="0">
          <mxGeometry x="-0.8153" y="-2" relative="1" as="geometry">
            <mxPoint y="1" as="offset" />
          </mxGeometry>
        </mxCell>
        <mxCell id="skSYLd1-rQxxLsY-IW7r-211" value="" style="endArrow=classic;html=1;rounded=0;exitX=0.5;exitY=1;exitDx=0;exitDy=0;entryX=0.5;entryY=0;entryDx=0;entryDy=0;" parent="1" source="skSYLd1-rQxxLsY-IW7r-196" target="skSYLd1-rQxxLsY-IW7r-197" edge="1">
          <mxGeometry width="50" height="50" relative="1" as="geometry">
            <mxPoint x="2109.23" y="-90" as="sourcePoint" />
            <mxPoint x="2159.23" y="-140" as="targetPoint" />
          </mxGeometry>
        </mxCell>
        <mxCell id="z-s9yusdOaEq-gaOYd2X-63" style="edgeStyle=orthogonalEdgeStyle;rounded=0;orthogonalLoop=1;jettySize=auto;html=1;exitX=0.5;exitY=1;exitDx=0;exitDy=0;" parent="1" source="skSYLd1-rQxxLsY-IW7r-212" target="skSYLd1-rQxxLsY-IW7r-206" edge="1">
          <mxGeometry relative="1" as="geometry" />
        </mxCell>
        <mxCell id="skSYLd1-rQxxLsY-IW7r-212" value="&lt;div style=&quot;text-align: left;&quot;&gt;&lt;font style=&quot;font-size: 17px;&quot;&gt;Staking Pool&lt;/font&gt;&lt;/div&gt;" style="rounded=0;whiteSpace=wrap;html=1;fillColor=#f8cecc;strokeColor=#b85450;" parent="1" vertex="1">
          <mxGeometry x="2117" y="40" width="184" height="110" as="geometry" />
        </mxCell>
        <mxCell id="skSYLd1-rQxxLsY-IW7r-213" value="&lt;b&gt;finalize_withdraw&lt;/b&gt;&lt;br&gt;&lt;br&gt;&lt;div style=&quot;text-align: left;&quot;&gt;&lt;ol&gt;&lt;li&gt;&lt;span style=&quot;background-color: initial;&quot;&gt;remove&amp;nbsp;&lt;/span&gt;UnstakeRequest&lt;/li&gt;&lt;li&gt;&lt;span style=&quot;background-color: initial;&quot;&gt;send NEAR to user&lt;/span&gt;&lt;/li&gt;&lt;li&gt;&lt;span style=&quot;background-color: initial;&quot;&gt;update&amp;nbsp;&lt;/span&gt;self.withdrawn_amount&lt;/li&gt;&lt;li&gt;&lt;span style=&quot;background-color: initial;&quot;&gt;emit event&lt;/span&gt;&lt;br&gt;&lt;/li&gt;&lt;/ol&gt;&lt;/div&gt;" style="rounded=0;whiteSpace=wrap;html=1;" parent="1" vertex="1">
          <mxGeometry x="2069" y="550" width="280" height="160" as="geometry" />
        </mxCell>
        <mxCell id="skSYLd1-rQxxLsY-IW7r-220" value="" style="edgeStyle=orthogonalEdgeStyle;rounded=0;orthogonalLoop=1;jettySize=auto;html=1;" parent="1" source="skSYLd1-rQxxLsY-IW7r-221" target="skSYLd1-rQxxLsY-IW7r-225" edge="1">
          <mxGeometry relative="1" as="geometry" />
        </mxCell>
        <mxCell id="skSYLd1-rQxxLsY-IW7r-221" value="&lt;ul&gt;&lt;li&gt;&lt;b&gt;collect_fees&lt;/b&gt;&lt;/li&gt;&lt;/ul&gt;" style="rounded=0;whiteSpace=wrap;html=1;align=left;fillColor=#d5e8d4;strokeColor=#82b366;" parent="1" vertex="1">
          <mxGeometry x="2048.5" y="1180" width="234" height="60" as="geometry" />
        </mxCell>
        <mxCell id="skSYLd1-rQxxLsY-IW7r-222" value="" style="sketch=0;outlineConnect=0;fontColor=#232F3E;gradientColor=none;fillColor=#232F3D;strokeColor=none;dashed=0;verticalLabelPosition=bottom;verticalAlign=top;align=center;html=1;fontSize=12;fontStyle=0;aspect=fixed;pointerEvents=1;shape=mxgraph.aws4.user;" parent="1" vertex="1">
          <mxGeometry x="2115.5" y="1000" width="78" height="78" as="geometry" />
        </mxCell>
        <mxCell id="skSYLd1-rQxxLsY-IW7r-223" value="" style="endArrow=classic;html=1;rounded=0;" parent="1" edge="1">
          <mxGeometry width="50" height="50" relative="1" as="geometry">
            <mxPoint x="2158.5" y="1090" as="sourcePoint" />
            <mxPoint x="2158.5" y="1180" as="targetPoint" />
          </mxGeometry>
        </mxCell>
        <mxCell id="skSYLd1-rQxxLsY-IW7r-224" value="&lt;b&gt;&lt;font style=&quot;font-size: 14px;&quot;&gt;Collect Fees Workflow&lt;/font&gt;&lt;/b&gt;" style="edgeLabel;html=1;align=center;verticalAlign=middle;resizable=0;points=[];" parent="skSYLd1-rQxxLsY-IW7r-223" vertex="1" connectable="0">
          <mxGeometry x="-0.0469" y="-3" relative="1" as="geometry">
            <mxPoint as="offset" />
          </mxGeometry>
        </mxCell>
        <mxCell id="skSYLd1-rQxxLsY-IW7r-225" value="&lt;b&gt;internal_collect_fees&lt;/b&gt;&lt;br&gt;&lt;div&gt;&lt;b&gt;&lt;br&gt;&lt;/b&gt;&lt;/div&gt;&lt;div&gt;&lt;div style=&quot;&quot;&gt;&lt;ul&gt;&lt;li style=&quot;text-align: left;&quot;&gt;calculate taxable_amount&lt;/li&gt;&lt;li style=&quot;text-align: left;&quot;&gt;mint shares to treasury&lt;/li&gt;&lt;li style=&quot;text-align: left;&quot;&gt;update self.tax_exempt_stake&lt;/li&gt;&lt;li style=&quot;text-align: left;&quot;&gt;emit event&lt;/li&gt;&lt;/ul&gt;&lt;/div&gt;&lt;/div&gt;" style="rounded=0;whiteSpace=wrap;html=1;" parent="1" vertex="1">
          <mxGeometry x="2048.5" y="1280" width="234" height="144" as="geometry" />
        </mxCell>
        <mxCell id="skSYLd1-rQxxLsY-IW7r-246" value="&lt;b&gt;Public functions&lt;/b&gt;" style="rounded=0;whiteSpace=wrap;html=1;fillColor=#d5e8d4;strokeColor=#82b366;" parent="1" vertex="1">
          <mxGeometry x="-540" y="-430" width="170" height="80" as="geometry" />
        </mxCell>
        <mxCell id="skSYLd1-rQxxLsY-IW7r-247" value="Internal functions" style="rounded=0;whiteSpace=wrap;html=1;fontStyle=1" parent="1" vertex="1">
          <mxGeometry x="-540" y="-310" width="170" height="80" as="geometry" />
        </mxCell>
        <mxCell id="skSYLd1-rQxxLsY-IW7r-248" value="&lt;b&gt;Callback functions&lt;/b&gt;" style="rounded=0;whiteSpace=wrap;html=1;fillColor=#fff2cc;strokeColor=#d6b656;" parent="1" vertex="1">
          <mxGeometry x="-540" y="-194" width="170" height="80" as="geometry" />
        </mxCell>
        <mxCell id="skSYLd1-rQxxLsY-IW7r-249" value="" style="edgeStyle=orthogonalEdgeStyle;rounded=0;orthogonalLoop=1;jettySize=auto;html=1;" parent="1" source="skSYLd1-rQxxLsY-IW7r-250" target="skSYLd1-rQxxLsY-IW7r-254" edge="1">
          <mxGeometry relative="1" as="geometry" />
        </mxCell>
        <mxCell id="skSYLd1-rQxxLsY-IW7r-250" value="&lt;ul&gt;&lt;li&gt;&lt;b&gt;update_total_staked&lt;/b&gt;&lt;/li&gt;&lt;/ul&gt;" style="rounded=0;whiteSpace=wrap;html=1;align=left;fillColor=#d5e8d4;strokeColor=#82b366;" parent="1" vertex="1">
          <mxGeometry x="2918.5" y="-410" width="234" height="60" as="geometry" />
        </mxCell>
        <mxCell id="skSYLd1-rQxxLsY-IW7r-251" value="" style="sketch=0;outlineConnect=0;fontColor=#232F3E;gradientColor=none;fillColor=#232F3D;strokeColor=none;dashed=0;verticalLabelPosition=bottom;verticalAlign=top;align=center;html=1;fontSize=12;fontStyle=0;aspect=fixed;pointerEvents=1;shape=mxgraph.aws4.user;" parent="1" vertex="1">
          <mxGeometry x="2985.5" y="-590" width="78" height="78" as="geometry" />
        </mxCell>
        <mxCell id="skSYLd1-rQxxLsY-IW7r-252" value="" style="endArrow=classic;html=1;rounded=0;" parent="1" edge="1">
          <mxGeometry width="50" height="50" relative="1" as="geometry">
            <mxPoint x="3028.5" y="-500" as="sourcePoint" />
            <mxPoint x="3028.5" y="-410" as="targetPoint" />
          </mxGeometry>
        </mxCell>
        <mxCell id="skSYLd1-rQxxLsY-IW7r-253" value="&lt;b&gt;&lt;font style=&quot;font-size: 14px;&quot;&gt;Update Total Staked Workflow&lt;/font&gt;&lt;/b&gt;" style="edgeLabel;html=1;align=center;verticalAlign=middle;resizable=0;points=[];" parent="skSYLd1-rQxxLsY-IW7r-252" vertex="1" connectable="0">
          <mxGeometry x="-0.0469" y="-3" relative="1" as="geometry">
            <mxPoint as="offset" />
          </mxGeometry>
        </mxCell>
        <mxCell id="skSYLd1-rQxxLsY-IW7r-254" value="&lt;b&gt;internal_update_stake&lt;/b&gt;&lt;div&gt;&lt;span style=&quot;text-align: left;&quot;&gt;&lt;br&gt;External call to staking pool&lt;/span&gt;&lt;b&gt;&lt;br&gt;&lt;/b&gt;&lt;/div&gt;" style="rounded=0;whiteSpace=wrap;html=1;" parent="1" vertex="1">
          <mxGeometry x="2918.5" y="-310" width="234" height="70" as="geometry" />
        </mxCell>
        <mxCell id="skSYLd1-rQxxLsY-IW7r-255" style="edgeStyle=orthogonalEdgeStyle;rounded=0;orthogonalLoop=1;jettySize=auto;html=1;entryX=1;entryY=0.5;entryDx=0;entryDy=0;exitX=0.5;exitY=1;exitDx=0;exitDy=0;" parent="1" source="skSYLd1-rQxxLsY-IW7r-254" target="skSYLd1-rQxxLsY-IW7r-258" edge="1">
          <mxGeometry relative="1" as="geometry">
            <mxPoint x="3141" y="-279.5" as="sourcePoint" />
            <Array as="points">
              <mxPoint x="3018" y="-64.5" />
            </Array>
          </mxGeometry>
        </mxCell>
        <mxCell id="skSYLd1-rQxxLsY-IW7r-256" value="&lt;ul style=&quot;text-align: left; background-color: rgb(251, 251, 251);&quot;&gt;&lt;li style=&quot;&quot;&gt;&lt;span style=&quot;font-size: 12px; text-wrap: wrap;&quot;&gt;&lt;b&gt;ping&lt;/b&gt;&lt;/span&gt;&lt;br&gt;&lt;/li&gt;&lt;li style=&quot;&quot;&gt;&lt;span style=&quot;font-size: 12px; text-wrap: wrap;&quot;&gt;&lt;b&gt;get_account_total_balance&lt;/b&gt;&lt;/span&gt;&lt;br&gt;&lt;/li&gt;&lt;/ul&gt;" style="edgeLabel;html=1;align=center;verticalAlign=middle;resizable=0;points=[];" parent="skSYLd1-rQxxLsY-IW7r-255" vertex="1" connectable="0">
          <mxGeometry x="-0.232" y="-1" relative="1" as="geometry">
            <mxPoint x="1" y="-52" as="offset" />
          </mxGeometry>
        </mxCell>
        <mxCell id="skSYLd1-rQxxLsY-IW7r-257" value="&lt;div style=&quot;&quot;&gt;&lt;b&gt;total_staked_callback&lt;/b&gt;&lt;br&gt;&lt;/div&gt;&lt;div&gt;&lt;b style=&quot;background-color: initial; text-align: left;&quot;&gt;&lt;br&gt;&lt;/b&gt;&lt;/div&gt;&lt;div&gt;&lt;ol&gt;&lt;li style=&quot;text-align: left;&quot;&gt;update&amp;nbsp; self.total_staked&lt;/li&gt;&lt;li style=&quot;text-align: left;&quot;&gt;update pools&#39;&amp;nbsp;total_staked&lt;/li&gt;&lt;/ol&gt;&lt;/div&gt;" style="rounded=0;whiteSpace=wrap;html=1;fillColor=#fff2cc;strokeColor=#d6b656;" parent="1" vertex="1">
          <mxGeometry x="2880" y="160.5" width="311" height="170" as="geometry" />
        </mxCell>
        <mxCell id="skSYLd1-rQxxLsY-IW7r-258" value="&lt;div style=&quot;text-align: left;&quot;&gt;&lt;font style=&quot;font-size: 17px;&quot;&gt;Staking Pool&lt;/font&gt;&lt;/div&gt;" style="rounded=0;whiteSpace=wrap;html=1;fillColor=#f8cecc;strokeColor=#b85450;" parent="1" vertex="1">
          <mxGeometry x="2941" y="-109.5" width="184" height="100" as="geometry" />
        </mxCell>
        <mxCell id="skSYLd1-rQxxLsY-IW7r-259" style="edgeStyle=orthogonalEdgeStyle;rounded=0;orthogonalLoop=1;jettySize=auto;html=1;strokeWidth=2;exitX=0.5;exitY=1;exitDx=0;exitDy=0;" parent="1" source="skSYLd1-rQxxLsY-IW7r-258" target="skSYLd1-rQxxLsY-IW7r-257" edge="1">
          <mxGeometry relative="1" as="geometry">
            <Array as="points">
              <mxPoint x="3031" y="-9.5" />
            </Array>
            <mxPoint x="3018" y="0.5" as="sourcePoint" />
            <mxPoint x="3018" y="280.5" as="targetPoint" />
          </mxGeometry>
        </mxCell>
        <mxCell id="skSYLd1-rQxxLsY-IW7r-260" value="Callback" style="edgeLabel;html=1;align=center;verticalAlign=middle;resizable=0;points=[];" parent="skSYLd1-rQxxLsY-IW7r-259" vertex="1" connectable="0">
          <mxGeometry x="0.0952" y="-1" relative="1" as="geometry">
            <mxPoint x="-12" y="-1" as="offset" />
          </mxGeometry>
        </mxCell>
        <mxCell id="z-s9yusdOaEq-gaOYd2X-17" value="" style="edgeStyle=orthogonalEdgeStyle;rounded=0;orthogonalLoop=1;jettySize=auto;html=1;" parent="1" source="z-s9yusdOaEq-gaOYd2X-18" target="z-s9yusdOaEq-gaOYd2X-22" edge="1">
          <mxGeometry relative="1" as="geometry" />
        </mxCell>
        <mxCell id="z-s9yusdOaEq-gaOYd2X-18" value="&lt;ul&gt;&lt;li&gt;&lt;b&gt;distribute_rewards&lt;/b&gt;&lt;br&gt;&lt;/li&gt;&lt;li&gt;&lt;b&gt;distribute_all&lt;/b&gt;&lt;br&gt;&lt;/li&gt;&lt;/ul&gt;" style="rounded=0;whiteSpace=wrap;html=1;align=left;fillColor=#d5e8d4;strokeColor=#82b366;" parent="1" vertex="1">
          <mxGeometry x="1291.23" y="1180" width="234" height="60" as="geometry" />
        </mxCell>
        <mxCell id="z-s9yusdOaEq-gaOYd2X-19" value="" style="sketch=0;outlineConnect=0;fontColor=#232F3E;gradientColor=none;fillColor=#232F3D;strokeColor=none;dashed=0;verticalLabelPosition=bottom;verticalAlign=top;align=center;html=1;fontSize=12;fontStyle=0;aspect=fixed;pointerEvents=1;shape=mxgraph.aws4.user;" parent="1" vertex="1">
          <mxGeometry x="1358.23" y="1000" width="78" height="78" as="geometry" />
        </mxCell>
        <mxCell id="z-s9yusdOaEq-gaOYd2X-20" value="" style="endArrow=classic;html=1;rounded=0;" parent="1" edge="1">
          <mxGeometry width="50" height="50" relative="1" as="geometry">
            <mxPoint x="1401.23" y="1090" as="sourcePoint" />
            <mxPoint x="1401.23" y="1180" as="targetPoint" />
          </mxGeometry>
        </mxCell>
        <mxCell id="z-s9yusdOaEq-gaOYd2X-21" value="&lt;b&gt;&lt;font style=&quot;font-size: 14px;&quot;&gt;Distribute Rewards Workflow&lt;/font&gt;&lt;/b&gt;" style="edgeLabel;html=1;align=center;verticalAlign=middle;resizable=0;points=[];" parent="z-s9yusdOaEq-gaOYd2X-20" vertex="1" connectable="0">
          <mxGeometry x="-0.0469" y="-3" relative="1" as="geometry">
            <mxPoint as="offset" />
          </mxGeometry>
        </mxCell>
        <mxCell id="z-s9yusdOaEq-gaOYd2X-42" value="Text" style="edgeLabel;html=1;align=center;verticalAlign=middle;resizable=0;points=[];" parent="z-s9yusdOaEq-gaOYd2X-20" vertex="1" connectable="0">
          <mxGeometry x="0.1511" y="-3" relative="1" as="geometry">
            <mxPoint as="offset" />
          </mxGeometry>
        </mxCell>
        <mxCell id="z-s9yusdOaEq-gaOYd2X-22" value="&lt;b&gt;internal_distribute&lt;/b&gt;&lt;div&gt;&lt;div style=&quot;&quot;&gt;&lt;ul&gt;&lt;li style=&quot;text-align: left;&quot;&gt;transfer dist fees to Treasury&lt;/li&gt;&lt;li style=&quot;text-align: left;&quot;&gt;transfer NEAR/TruNEAR to the recipient&lt;/li&gt;&lt;li style=&quot;text-align: left;&quot;&gt;update allocation price&lt;/li&gt;&lt;/ul&gt;&lt;/div&gt;&lt;div&gt;&lt;div style=&quot;&quot;&gt;&lt;br&gt;&lt;/div&gt;&lt;span style=&quot;&quot;&gt;emit event&lt;/span&gt;&lt;b&gt;&lt;br&gt;&lt;/b&gt;&lt;/div&gt;&lt;/div&gt;" style="rounded=0;whiteSpace=wrap;html=1;" parent="1" vertex="1">
          <mxGeometry x="1268.23" y="1290" width="280" height="140" as="geometry" />
        </mxCell>
        <mxCell id="z-s9yusdOaEq-gaOYd2X-29" value="&lt;ul&gt;&lt;li&gt;contract not paused&lt;/li&gt;&lt;li&gt;user whitelisted&lt;/li&gt;&lt;li&gt;check_contract_in_sync&lt;br&gt;&lt;/li&gt;&lt;li&gt;min deposit&lt;/li&gt;&lt;li&gt;pool exists&lt;/li&gt;&lt;/ul&gt;" style="rounded=1;whiteSpace=wrap;html=1;align=left;fillColor=#f5f5f5;fontColor=#333333;strokeColor=#666666;" parent="1" vertex="1">
          <mxGeometry x="320" y="-418" width="190" height="98" as="geometry" />
        </mxCell>
        <mxCell id="z-s9yusdOaEq-gaOYd2X-31" value="&lt;ul&gt;&lt;li&gt;contract not paused&lt;/li&gt;&lt;li&gt;user whitelisted&lt;/li&gt;&lt;li&gt;check_contract_in_sync&lt;br&gt;&lt;/li&gt;&lt;li&gt;attached storage deposit&amp;nbsp;&lt;/li&gt;&lt;li&gt;no pending unstake from prior epochs&lt;/li&gt;&lt;/ul&gt;" style="rounded=1;whiteSpace=wrap;html=1;align=left;fillColor=#f5f5f5;fontColor=#333333;strokeColor=#666666;" parent="1" vertex="1">
          <mxGeometry x="1265.23" y="-425" width="260" height="90" as="geometry" />
        </mxCell>
        <mxCell id="z-s9yusdOaEq-gaOYd2X-32" value="&lt;ul&gt;&lt;li&gt;contract not paused&lt;/li&gt;&lt;li&gt;user whitelisted&lt;/li&gt;&lt;li&gt;&lt;span style=&quot;background-color: initial;&quot;&gt;valid unstake request nonce&lt;/span&gt;&lt;/li&gt;&lt;li&gt;&lt;span style=&quot;background-color: initial;&quot;&gt;caller requested unstake&lt;/span&gt;&lt;/li&gt;&lt;li&gt;&lt;span style=&quot;background-color: initial;&quot;&gt;unstaking completed unlock period&lt;/span&gt;&lt;br&gt;&lt;/li&gt;&lt;/ul&gt;" style="rounded=1;whiteSpace=wrap;html=1;align=left;fillColor=#f5f5f5;fontColor=#333333;strokeColor=#666666;" parent="1" vertex="1">
          <mxGeometry x="2197" y="-418" width="260" height="128" as="geometry" />
        </mxCell>
        <mxCell id="z-s9yusdOaEq-gaOYd2X-33" value="&lt;ul&gt;&lt;li&gt;contract not paused&lt;/li&gt;&lt;li&gt;check_contract_in_sync&lt;br&gt;&lt;/li&gt;&lt;/ul&gt;" style="rounded=1;whiteSpace=wrap;html=1;align=left;fillColor=#f5f5f5;fontColor=#333333;strokeColor=#666666;" parent="1" vertex="1">
          <mxGeometry x="2310" y="1173" width="190" height="74" as="geometry" />
        </mxCell>
        <mxCell id="z-s9yusdOaEq-gaOYd2X-34" value="&lt;ul&gt;&lt;li&gt;contract not paused&lt;/li&gt;&lt;li&gt;user whitelisted&lt;/li&gt;&lt;li&gt;user has allocation(s)&lt;/li&gt;&lt;/ul&gt;" style="rounded=1;whiteSpace=wrap;html=1;align=left;fillColor=#f5f5f5;fontColor=#333333;strokeColor=#666666;" parent="1" vertex="1">
          <mxGeometry x="1574.23" y="1169" width="190" height="74" as="geometry" />
        </mxCell>
        <mxCell id="z-s9yusdOaEq-gaOYd2X-36" value="&lt;b&gt;allocate&lt;/b&gt;&lt;div&gt;&lt;b&gt;&lt;br&gt;&lt;/b&gt;&lt;/div&gt;&lt;div&gt;&lt;ul&gt;&lt;li&gt;store/update Allocation&lt;/li&gt;&lt;li style=&quot;text-align: left;&quot;&gt;emit event&lt;/li&gt;&lt;/ul&gt;&lt;/div&gt;" style="rounded=0;whiteSpace=wrap;html=1;align=center;fillColor=#d5e8d4;strokeColor=#82b366;" parent="1" vertex="1">
          <mxGeometry y="1180" width="234" height="115" as="geometry" />
        </mxCell>
        <mxCell id="z-s9yusdOaEq-gaOYd2X-37" value="" style="sketch=0;outlineConnect=0;fontColor=#232F3E;gradientColor=none;fillColor=#232F3D;strokeColor=none;dashed=0;verticalLabelPosition=bottom;verticalAlign=top;align=center;html=1;fontSize=12;fontStyle=0;aspect=fixed;pointerEvents=1;shape=mxgraph.aws4.user;" parent="1" vertex="1">
          <mxGeometry x="67" y="1000" width="78" height="78" as="geometry" />
        </mxCell>
        <mxCell id="z-s9yusdOaEq-gaOYd2X-38" value="" style="endArrow=classic;html=1;rounded=0;" parent="1" edge="1">
          <mxGeometry width="50" height="50" relative="1" as="geometry">
            <mxPoint x="110" y="1090" as="sourcePoint" />
            <mxPoint x="110" y="1180" as="targetPoint" />
          </mxGeometry>
        </mxCell>
        <mxCell id="z-s9yusdOaEq-gaOYd2X-39" value="&lt;b&gt;&lt;font style=&quot;font-size: 14px;&quot;&gt;Allocation Workflow&lt;/font&gt;&lt;/b&gt;" style="edgeLabel;html=1;align=center;verticalAlign=middle;resizable=0;points=[];" parent="z-s9yusdOaEq-gaOYd2X-38" vertex="1" connectable="0">
          <mxGeometry x="-0.0469" y="-3" relative="1" as="geometry">
            <mxPoint as="offset" />
          </mxGeometry>
        </mxCell>
        <mxCell id="z-s9yusdOaEq-gaOYd2X-41" value="&lt;ul&gt;&lt;li&gt;contract not paused&lt;/li&gt;&lt;li&gt;user whitelisted&lt;/li&gt;&lt;li&gt;recipient is valid&lt;/li&gt;&lt;li&gt;min allocation amount&lt;/li&gt;&lt;li&gt;attached storage deposit&lt;/li&gt;&lt;/ul&gt;" style="rounded=1;whiteSpace=wrap;html=1;align=left;fillColor=#f5f5f5;fontColor=#333333;strokeColor=#666666;" parent="1" vertex="1">
          <mxGeometry x="283" y="1169" width="190" height="96" as="geometry" />
        </mxCell>
        <mxCell id="z-s9yusdOaEq-gaOYd2X-44" value="&lt;b&gt;deallocate&lt;/b&gt;&lt;div&gt;&lt;b&gt;&lt;br&gt;&lt;/b&gt;&lt;/div&gt;&lt;div&gt;&lt;ul&gt;&lt;li&gt;store/update Allocation&lt;/li&gt;&lt;li style=&quot;text-align: left;&quot;&gt;emit event&lt;/li&gt;&lt;/ul&gt;&lt;/div&gt;" style="rounded=0;whiteSpace=wrap;html=1;align=center;fillColor=#d5e8d4;strokeColor=#82b366;" parent="1" vertex="1">
          <mxGeometry x="637" y="1180" width="234" height="115" as="geometry" />
        </mxCell>
        <mxCell id="z-s9yusdOaEq-gaOYd2X-45" value="" style="sketch=0;outlineConnect=0;fontColor=#232F3E;gradientColor=none;fillColor=#232F3D;strokeColor=none;dashed=0;verticalLabelPosition=bottom;verticalAlign=top;align=center;html=1;fontSize=12;fontStyle=0;aspect=fixed;pointerEvents=1;shape=mxgraph.aws4.user;" parent="1" vertex="1">
          <mxGeometry x="704" y="1000" width="78" height="78" as="geometry" />
        </mxCell>
        <mxCell id="z-s9yusdOaEq-gaOYd2X-46" value="" style="endArrow=classic;html=1;rounded=0;" parent="1" edge="1">
          <mxGeometry width="50" height="50" relative="1" as="geometry">
            <mxPoint x="747" y="1090" as="sourcePoint" />
            <mxPoint x="747" y="1180" as="targetPoint" />
          </mxGeometry>
        </mxCell>
        <mxCell id="z-s9yusdOaEq-gaOYd2X-47" value="&lt;b&gt;&lt;font style=&quot;font-size: 14px;&quot;&gt;Deallocation Workflow&lt;/font&gt;&lt;/b&gt;" style="edgeLabel;html=1;align=center;verticalAlign=middle;resizable=0;points=[];" parent="z-s9yusdOaEq-gaOYd2X-46" vertex="1" connectable="0">
          <mxGeometry x="-0.0469" y="-3" relative="1" as="geometry">
            <mxPoint as="offset" />
          </mxGeometry>
        </mxCell>
        <mxCell id="z-s9yusdOaEq-gaOYd2X-48" value="&lt;ul&gt;&lt;li&gt;contract not paused&lt;/li&gt;&lt;li&gt;user whitelisted&lt;/li&gt;&lt;li&gt;allocation exists&lt;/li&gt;&lt;li&gt;&lt;span style=&quot;background-color: initial;&quot;&gt;allocation remaining amount is valid&lt;/span&gt;&lt;br&gt;&lt;/li&gt;&lt;/ul&gt;" style="rounded=1;whiteSpace=wrap;html=1;align=left;fillColor=#f5f5f5;fontColor=#333333;strokeColor=#666666;" parent="1" vertex="1">
          <mxGeometry x="920" y="1169" width="217" height="96" as="geometry" />
        </mxCell>
        <mxCell id="z-s9yusdOaEq-gaOYd2X-49" style="edgeStyle=orthogonalEdgeStyle;rounded=0;orthogonalLoop=1;jettySize=auto;html=1;exitX=0.5;exitY=1;exitDx=0;exitDy=0;" parent="1" source="z-s9yusdOaEq-gaOYd2X-36" target="z-s9yusdOaEq-gaOYd2X-36" edge="1">
          <mxGeometry relative="1" as="geometry" />
        </mxCell>
        <mxCell id="z-s9yusdOaEq-gaOYd2X-50" value="&lt;div&gt;&lt;b&gt;&amp;nbsp;Checks&lt;/b&gt;&lt;/div&gt;" style="rounded=1;whiteSpace=wrap;html=1;align=center;fillColor=#f5f5f5;fontColor=#333333;strokeColor=#666666;" parent="1" vertex="1">
          <mxGeometry x="-540" y="-50" width="180" height="76" as="geometry" />
        </mxCell>
      </root>
    </mxGraphModel>
  </diagram>
</mxfile>
